<svg viewBox="411.00000000000006 465 845.9999999999999 573" xmlns:xlink="http://www.w3.org/1999/xlink" version="1.1" xmlns="http://www.w3.org/2000/svg" style="max-height: 500px" width="845.9999999999999" height="573"><g transform="matrix(0.6666666666666666,0,0,0.6666666666666666,249.39393939393938,435.99032258064517)"><svg xmlns:xlink="http://www.w3.org/1999/xlink" xmlns="http://www.w3.org/2000/svg" width="1500" height="939" preserveAspectRatio="xMidYMid meet" data-background-color="#ffffff" viewBox="0 0 396 248"><g transform="matrix(1,0,0,1,0.2400000000000091,0.4000000000000057)" id="tight-bounds"><svg width="395.52" height="247.2" viewBox="0 0 395.52 247.2"><g><svg/></g><g><svg width="395.52" height="247.2" viewBox="0 0 395.52 247.2"><g transform="matrix(1,0,0,1,75.54432,83.63859681037772)"><svg width="244.43135999999998" height="79.92280637924455" viewBox="0 0 244.43135999999998 79.92280637924455"><g><svg width="244.43135999999998" height="79.92280637924455" viewBox="0 0 244.43135999999998 79.92280637924455"><g><svg width="244.43135999999998" height="79.92280637924455" viewBox="0 0 244.43135999999998 79.92280637924455"><g><svg width="244.43135999999998" height="79.92280637924455" viewBox="0 0 244.43135999999998 79.92280637924455"><g id="textblocktransform"><svg id="textblock" width="244.43135999999998" height="79.92280637924455" viewBox="0 0 244.43135999999998 79.92280637924455"><g><svg width="244.43135999999998" height="79.92280637924455" viewBox="0 0 244.43135999999998 79.92280637924455"><g transform="matrix(1,0,0,1,0,0)"><svg data-palette-color="#ff9208" height="79.92280637924455" viewBox="4.45 -32.75 131.04000000000002 42.85" width="244.43135999999998"><path id="text-0" data-fill-palette-color="primary" class="wordmark-text-0" fill="#000000" transform="matrix(1,0,0,1,0,0)" opacity="1" d="M8.5-30L8.5-12.3 4.45-12.35 4.45-28.2Q4.45-29.2 5.05-29.8 5.65-30.4 6.65-30.4L6.65-30.4Q7.2-30.4 7.75-30.25 8.3-30.1 8.5-30L8.5-30ZM20.4-13.1L6.65-13.1 6.65-16.55 21.5-16.55Q21.65-16.3 21.8-15.88 21.95-15.45 21.95-14.95L21.95-14.95Q21.95-14.15 21.55-13.63 21.15-13.1 20.4-13.1L20.4-13.1ZM22.15-26.95L6.65-26.95 6.65-30.4 23.25-30.4Q23.4-30.2 23.55-29.75 23.7-29.3 23.7-28.8L23.7-28.8Q23.7-28 23.3-27.48 22.9-26.95 22.15-26.95L22.15-26.95ZM4.45-1.55L4.45-17.8 8.55-17.8 8.55-0.05Q8.3 0 7.78 0.13 7.25 0.25 6.7 0.25L6.7 0.25Q5.6 0.25 5.03-0.2 4.45-0.65 4.45-1.55L4.45-1.55ZM33.6-18.8L33.6-18.8 33.6-10.9 29.6-10.9 29.6-18.5Q29.6-19.65 30.02-20.33 30.45-21 31.45-21.65L31.45-21.65Q32.75-22.5 35-23.13 37.25-23.75 40-23.75L40-23.75Q44-23.75 44-21.75L44-21.75Q44-21.25 43.85-20.83 43.7-20.4 43.45-20.1L43.45-20.1Q42.95-20.2 42.15-20.3 41.35-20.4 40.55-20.4L40.55-20.4Q38.25-20.4 36.5-19.93 34.75-19.45 33.6-18.8ZM29.6-1.55L29.6-13.2 33.6-12.6 33.6-0.1Q33.35 0 32.85 0.13 32.35 0.25 31.75 0.25L31.75 0.25Q30.7 0.25 30.15-0.18 29.6-0.6 29.6-1.55L29.6-1.55ZM48.7-8.45L48.7-8.45 48.7-13 52.7-13 52.7-8.65Q52.7-5.45 54.4-4.05 56.1-2.65 59.1-2.65L59.1-2.65Q61.1-2.65 62.5-3.08 63.9-3.5 64.7-3.95L64.7-3.95 64.7-13 68.7-13 68.7-4.1Q68.7-3.05 68.42-2.43 68.15-1.8 67.1-1.2L67.1-1.2Q66-0.55 63.95 0.05 61.9 0.65 59.05 0.65L59.05 0.65Q55.75 0.65 53.42-0.33 51.1-1.3 49.9-3.33 48.7-5.35 48.7-8.45ZM68.7-21.5L68.7-10.4 64.7-10.4 64.7-23Q64.95-23.1 65.47-23.23 66-23.35 66.55-23.35L66.55-23.35Q67.65-23.35 68.17-22.93 68.7-22.5 68.7-21.5L68.7-21.5ZM52.7-21.5L52.7-10.4 48.7-10.4 48.7-23Q48.95-23.1 49.47-23.23 50-23.35 50.6-23.35L50.6-23.35Q51.65-23.35 52.17-22.93 52.7-22.5 52.7-21.5L52.7-21.5ZM85.79-0.7L85.79-0.7Q82.89-0.7 80.44-1.83 77.99-2.95 76.49-5.5 74.99-8.05 74.99-12.25L74.99-12.25Q74.99-16.05 76.47-18.6 77.94-21.15 80.54-22.45 83.14-23.75 86.49-23.75L86.49-23.75Q88.79-23.75 90.72-23.18 92.64-22.6 93.94-21.75L93.94-21.75Q94.69-21.25 95.17-20.63 95.64-20 95.64-19.1L95.64-19.1 95.64-3.65 91.64-3.65 91.64-19.05Q90.79-19.6 89.52-20.03 88.24-20.45 86.49-20.45L86.49-20.45Q83.14-20.45 81.09-18.4 79.04-16.35 79.04-12.3L79.04-12.3Q79.04-7.8 81.12-5.9 83.19-4 86.24-4L86.24-4Q88.44-4 89.79-4.75 91.14-5.5 91.94-6.4L91.94-6.4 92.14-2.85Q91.39-2.05 89.77-1.38 88.14-0.7 85.79-0.7ZM91.64 0.75L91.64 0.75 91.64-4.5 95.64-4.5 95.64 1Q95.64 4.3 94.22 6.3 92.79 8.3 90.32 9.2 87.84 10.1 84.74 10.1L84.74 10.1Q82.24 10.1 80.44 9.55 78.64 9 77.99 8.65L77.99 8.65Q76.49 7.8 76.49 6.5L76.49 6.5Q76.49 5.8 76.82 5.33 77.14 4.85 77.64 4.6L77.64 4.6Q78.69 5.4 80.62 6.08 82.54 6.75 84.74 6.75L84.74 6.75Q88.09 6.75 89.87 5.3 91.64 3.85 91.64 0.75ZM103.44-1.55L103.44-13.2 107.44-12.6 107.44-0.1Q107.19 0 106.69 0.13 106.19 0.25 105.59 0.25L105.59 0.25Q104.54 0.25 103.99-0.18 103.44-0.6 103.44-1.55L103.44-1.55ZM107.44-30.95L107.44-10.7 103.44-11.25 103.44-32.4Q103.69-32.5 104.22-32.63 104.74-32.75 105.29-32.75L105.29-32.75Q106.39-32.75 106.92-32.33 107.44-31.9 107.44-30.95L107.44-30.95ZM133.59-11.35L116.79-9 116.59-12.15 131.69-14.2Q131.49-16.95 129.79-18.73 128.09-20.5 125.09-20.5L125.09-20.5Q121.99-20.5 119.96-18.28 117.94-16.05 117.94-11.9L117.94-11.9 117.94-10.8Q118.29-6.8 120.56-4.73 122.84-2.65 126.79-2.65L126.79-2.65Q128.89-2.65 130.59-3.35 132.29-4.05 133.29-4.85L133.29-4.85Q133.84-4.5 134.16-4.03 134.49-3.55 134.49-2.95L134.49-2.95Q134.49-2 133.41-1.18 132.34-0.35 130.56 0.15 128.79 0.65 126.59 0.65L126.59 0.65Q122.74 0.65 119.91-0.75 117.09-2.15 115.56-4.93 114.04-7.7 114.04-11.7L114.04-11.7Q114.04-14.55 114.86-16.78 115.69-19 117.16-20.55 118.64-22.1 120.69-22.93 122.74-23.75 125.14-23.75L125.14-23.75Q128.19-23.75 130.51-22.45 132.84-21.15 134.16-18.82 135.49-16.5 135.49-13.5L135.49-13.5Q135.49-12.4 134.99-11.93 134.49-11.45 133.59-11.35L133.59-11.35Z"/></svg></g></svg></g></svg></g></svg></g></svg></g></svg></g></svg></g><path data-fill-palette-color="tertiary" stroke="transparent" fill="#000000" d="M182.769 77.639L182.769 22.509 384.95 22.509 384.95 224.691 182.769 224.691 182.769 169.561 189.976 169.561 189.976 217.483 377.742 217.483 377.742 29.717 189.976 29.717 189.976 77.639Z"/></svg></g><defs/></svg><rect visibility="hidden" stroke="none" fill="none" height="247.2" width="395.52"/></g></svg></g></svg>